<?xml version="1.0" encoding="utf-8"?>
<!-- Generator: Adobe Illustrator 26.0.0, SVG Export Plug-In . SVG Version: 6.00 Build 0)  -->
<svg version="1.1"
	 id="Capa_1" xmlns:inkscape="http://www.inkscape.org/namespaces/inkscape" xmlns:sodipodi="http://sodipodi.sourceforge.net/DTD/sodipodi-0.dtd" xmlns:svg="http://www.w3.org/2000/svg"
	 xmlns="http://www.w3.org/2000/svg" xmlns:xlink="http://www.w3.org/1999/xlink" x="0px" y="0px" viewBox="0 0 37.3 39.6"
	 style="enable-background:new 0 0 37.3 39.6;" xml:space="preserve">
<style type="text/css">
	.st0{fill:#134AD1;stroke:#01D6EB;stroke-width:3;}
	.st1{fill-rule:evenodd;clip-rule:evenodd;fill:#FFFFFF;}
	.st2{fill:#FFFFFF;}
</style>
<sodipodi:namedview  bordercolor="#666666" borderopacity="1.0" id="namedview13" inkscape:pagecheckerboard="0" inkscape:pageopacity="0.0" inkscape:pageshadow="2" pagecolor="#ffffff">
	</sodipodi:namedview>
<path id="path4" class="st0" d="M23.4,2.8c-2.9-1.7-6.6-1.7-9.5,0L6.3,7.2C3.4,8.9,1.5,12,1.5,15.4v8.8c0,3.4,1.8,6.5,4.8,8.2
	l7.6,4.4c2.9,1.7,6.6,1.7,9.5,0l7.6-4.4c2.9-1.7,4.8-4.8,4.8-8.2v-8.8c0-3.4-1.8-6.5-4.8-8.2L23.4,2.8z"/>
<g id="g10" transform="translate(-0.4,-0.21982783)">
	<path id="path6" class="st1" d="M10.7,18.1V25h16.7v-6.9l-7.7,5L19,23.6l-0.7-0.4L10.7,18.1z M26.1,15H19h-7.1v1l7.1,4.7l7.1-4.7
		V15z"/>
	<path id="path8" class="st2" d="M10.7,15v1.7l8.3,5.5l8.3-5.5V15H10.7z"/>
</g>
</svg>
