<?xml version="1.0" encoding="utf-8"?>
<!-- Generator: Adobe Illustrator 26.0.0, SVG Export Plug-In . SVG Version: 6.00 Build 0)  -->
<svg version="1.1" id="Capa_1" xmlns="http://www.w3.org/2000/svg" xmlns:xlink="http://www.w3.org/1999/xlink" x="0px" y="0px"
	 viewBox="0 0 64 70" style="enable-background:new 0 0 64 70;" xml:space="preserve">
<style type="text/css">
	.st0{fill:#134AD1;stroke:#01D6EB;stroke-width:4;}
	.st1{fill:none;stroke:#FFFFFF;stroke-width:3;stroke-linecap:round;stroke-linejoin:round;stroke-miterlimit:10;}
</style>
<path class="st0" d="M38,4.2C34.3,2,29.7,2,26,4.2L8.3,14.4c-3.7,2.1-6,6.1-6,10.4v20.5c0,4.3,2.3,8.2,6,10.4L26,65.8
	c3.7,2.1,8.3,2.1,12,0l17.7-10.2c3.7-2.1,6-6.1,6-10.4V24.8c0-4.3-2.3-8.2-6-10.4L38,4.2z"/>
<g>
	<path class="st1" d="M19.7,43.5C18,41.1,17,38.2,17,35c0-2.4,0.6-4.6,1.5-6.6"/>
	<path class="st1" d="M32.4,35H47c0,3-0.8,5.9-2.3,8.2"/>
	<path class="st1" d="M23.6,47.3c2.5,1.7,5.5,2.7,8.8,2.7c3.3,0,6.3-1,8.7-2.8"/>
	<path class="st1" d="M21.9,24c2.7-2.5,6.4-4,10.4-4c3.2,0,6.1,0.9,8.6,2.5"/>
</g>
</svg>
