<?xml version="1.0" encoding="utf-8"?>
<!-- Generator: Adobe Illustrator 26.0.0, SVG Export Plug-In . SVG Version: 6.00 Build 0)  -->
<svg version="1.1" id="Capa_1" xmlns="http://www.w3.org/2000/svg" xmlns:xlink="http://www.w3.org/1999/xlink" x="0px" y="0px"
	 viewBox="0 0 38 40" style="enable-background:new 0 0 38 40;" xml:space="preserve">
<style type="text/css">
	.st0{fill:#134AD1;stroke:#01D6EB;stroke-width:3;}
	.st1{fill-rule:evenodd;clip-rule:evenodd;fill:#FFFFFF;}
	.st2{fill-rule:evenodd;clip-rule:evenodd;fill:#134AD1;}
</style>
<path class="st0" d="M23.8,3c-2.9-1.7-6.6-1.7-9.5,0L6.7,7.4c-2.9,1.7-4.8,4.8-4.8,8.2v8.8c0,3.4,1.8,6.5,4.8,8.2l7.6,4.4
	c2.9,1.7,6.6,1.7,9.5,0l7.6-4.4c2.9-1.7,4.8-4.8,4.8-8.2v-8.8c0-3.4-1.8-6.5-4.8-8.2L23.8,3z"/>
<g>
	<path class="st1" d="M14.6,16.7c0-2.4,2-4.4,4.4-4.4s4.4,2,4.4,4.4H14.6z M13.4,16.7c0-3.1,2.5-5.6,5.6-5.6s5.6,2.5,5.6,5.6h0.2
		c0.5,0,0.8,0.4,0.8,0.8v10c0,0.5-0.4,0.8-0.8,0.8H13.2c-0.5,0-0.8-0.4-0.8-0.8v-10c0-0.5,0.4-0.8,0.8-0.8H13.4z"/>
	<path class="st2" d="M19.6,19.2v-0.6h-1.2v0.6v1.9l-1.3-1.3l-0.4-0.4l-0.8,0.8l0.4,0.4l1.3,1.3h-1.9h-0.6v1.2h0.6h1.9l-1.3,1.3
		l-0.4,0.4l0.8,0.8l0.4-0.4l1.3-1.3v1.9v0.6h1.2v-0.6v-1.9l1.3,1.3l0.4,0.4l0.8-0.8l-0.4-0.4l-1.3-1.3h1.9h0.6v-1.2h-0.6h-1.9
		l1.3-1.3l0.4-0.4l-0.8-0.8l-0.4,0.4l-1.3,1.3V19.2z"/>
</g>
</svg>
